<svg version="1.1" xmlns="http://www.w3.org/2000/svg" viewBox="0 0 750.9766540527344 360.9171460014959" width="750.9766540527344" height="360.9171460014959">
  <!-- svg-source:excalidraw -->
  
  <defs>
    <style class="style-fonts">
      @font-face {
        font-family: "Virgil";
        src: url("http://127.0.0.1:37840/node_modules/@excalidraw/excalidraw/dist//dist/excalidraw-assets/Virgil.woff2");
      }
      @font-face {
        font-family: "Cascadia";
        src: url("http://127.0.0.1:37840/node_modules/@excalidraw/excalidraw/dist//dist/excalidraw-assets/Cascadia.woff2");
      }
      @font-face {
        font-family: "Assistant";
        src: url("http://127.0.0.1:37840/node_modules/@excalidraw/excalidraw/dist//dist/excalidraw-assets/Assistant-Regular.woff2");
      }
    </style>
    
  </defs>
  <rect x="0" y="0" width="750.9766540527344" height="360.9171460014959" fill="#ffffff"></rect><g stroke-linecap="round"><g transform="translate(70 95.91720703665212) rotate(0 117.5 1.25)"><path d="M-0.79 1 C38.27 1.42, 194.76 1.6, 233.93 1.78 M0.99 0.48 C40.45 1.1, 196.8 2.49, 236.08 2.93" stroke="#1e1e1e" stroke-width="2" fill="none"></path></g><g transform="translate(70 95.91720703665212) rotate(0 117.5 1.25)"><path d="M207.78 12.91 C216.99 8.67, 221.61 6.47, 236.08 2.93 M207.78 12.91 C214.73 11.06, 222.87 7.28, 236.08 2.93" stroke="#1e1e1e" stroke-width="2" fill="none"></path></g><g transform="translate(70 95.91720703665212) rotate(0 117.5 1.25)"><path d="M207.99 -7.61 C217.02 -6.42, 221.58 -3.2, 236.08 2.93 M207.99 -7.61 C214.78 -4.08, 222.87 -2.48, 236.08 2.93" stroke="#1e1e1e" stroke-width="2" fill="none"></path></g></g><mask></mask><g stroke-linecap="round" transform="translate(5 75.08386353079274) rotate(0 32.91668701171875 19.583328247070312)"><path d="M9.79 0 C22.18 -1.05, 35.61 1.85, 56.04 0 M9.79 0 C27.12 0.25, 46.32 1.33, 56.04 0 M56.04 0 C63.69 -1.54, 65.16 3.61, 65.83 9.79 M56.04 0 C61.39 0.96, 66.6 1.31, 65.83 9.79 M65.83 9.79 C64.69 12.34, 64.48 17.06, 65.83 29.37 M65.83 9.79 C64.97 17.03, 64.93 23.33, 65.83 29.37 M65.83 29.37 C66.59 35.82, 62.16 37.66, 56.04 39.17 M65.83 29.37 C66.7 36.52, 60.85 37.95, 56.04 39.17 M56.04 39.17 C42.51 38.9, 30.07 38.61, 9.79 39.17 M56.04 39.17 C42.03 39.73, 29.49 38.66, 9.79 39.17 M9.79 39.17 C4.36 37.26, -0.91 34.24, 0 29.37 M9.79 39.17 C2.11 39.47, 1.89 36.36, 0 29.37 M0 29.37 C0.46 23.76, -0.87 22.27, 0 9.79 M0 29.37 C0.48 22.42, 0.78 14.12, 0 9.79 M0 9.79 C-0.04 2.37, 4.96 -1.39, 9.79 0 M0 9.79 C1.49 2.95, 2.11 -0.31, 9.79 0" stroke="#1e1e1e" stroke-width="2" fill="none"></path></g><g stroke-linecap="round" transform="translate(312.25006103515625 76.3338787895818) rotate(0 32.91668701171875 19.583328247070312)"><path d="M9.79 0 C25.64 -1.06, 47.15 0.47, 56.04 0 M9.79 0 C27.66 -0.19, 44.56 0.28, 56.04 0 M56.04 0 C62.31 -1.35, 66.86 3.06, 65.83 9.79 M56.04 0 C60.65 2.12, 63.74 4.29, 65.83 9.79 M65.83 9.79 C67.84 16.41, 64.1 20.25, 65.83 29.37 M65.83 9.79 C66.12 15.01, 65.21 21.68, 65.83 29.37 M65.83 29.37 C64.34 37.5, 62.41 40.32, 56.04 39.17 M65.83 29.37 C63.96 33.66, 63.2 39.91, 56.04 39.17 M56.04 39.17 C43.69 39.06, 27.71 40.03, 9.79 39.17 M56.04 39.17 C40.34 38.7, 26.63 39.36, 9.79 39.17 M9.79 39.17 C2.79 40.44, -1.47 35.63, 0 29.37 M9.79 39.17 C2.55 39.82, 1.52 37.65, 0 29.37 M0 29.37 C0.21 22.39, 1.15 14.4, 0 9.79 M0 29.37 C-0.25 22.68, -0.75 15.43, 0 9.79 M0 9.79 C-0.02 4.55, 3.85 -0.48, 9.79 0 M0 9.79 C0.92 1.11, 5.02 1.57, 9.79 0" stroke="#1e1e1e" stroke-width="2" fill="none"></path></g><g stroke-linecap="round"><g transform="translate(71.18746144287292 91.29221466604665) rotate(0 153.3333435058594 -41.66667175292969)"><path d="M0.99 0.99 C52.29 -12.77, 256.16 -69.33, 307.06 -83.53 M0.06 0.46 C51.29 -13.02, 255.41 -68.12, 306.32 -82.1" stroke="#1e1e1e" stroke-width="2" fill="none"></path></g><g transform="translate(71.18746144287292 91.29221466604665) rotate(0 153.3333435058594 -41.66667175292969)"><path d="M281.8 -64.81 C289.52 -68.53, 293.46 -73.77, 306.32 -82.1 M281.8 -64.81 C288.24 -67.78, 293.25 -72.43, 306.32 -82.1" stroke="#1e1e1e" stroke-width="2" fill="none"></path></g><g transform="translate(71.18746144287292 91.29221466604665) rotate(0 153.3333435058594 -41.66667175292969)"><path d="M276.42 -84.61 C285.27 -83.6, 290.51 -84.06, 306.32 -82.1 M276.42 -84.61 C284.12 -83.1, 290.33 -83.32, 306.32 -82.1" stroke="#1e1e1e" stroke-width="2" fill="none"></path></g></g><mask></mask><g stroke-linecap="round"><g transform="translate(71.85408741943542 94.91213301962935) rotate(0 137.0833435058594 39.84504131404131)"><path d="M-0.99 -0.87 C44.53 12.42, 228.12 65.45, 274.09 79.02 M0.7 1.28 C45.97 14.78, 227.48 67.31, 273.1 80.21" stroke="#1e1e1e" stroke-width="2" fill="none"></path></g><g transform="translate(71.85408741943542 94.91213301962935) rotate(0 137.0833435058594 39.84504131404131)"><path d="M243.18 82.3 C253.13 81.63, 264.87 82.06, 273.1 80.21 M243.18 82.3 C253.91 82.49, 264.6 80.36, 273.1 80.21" stroke="#1e1e1e" stroke-width="2" fill="none"></path></g><g transform="translate(71.85408741943542 94.91213301962935) rotate(0 137.0833435058594 39.84504131404131)"><path d="M248.83 62.58 C256.51 69.37, 266.1 77.31, 273.1 80.21 M248.83 62.58 C257.49 70.08, 266.08 75.28, 273.1 80.21" stroke="#1e1e1e" stroke-width="2" fill="none"></path></g></g><mask></mask><g stroke-linecap="round" transform="translate(353.2708354663105 149.87551239553883) rotate(0 32.91668701171875 19.583328247070312)"><path d="M9.79 0 C24.81 0.1, 35.95 -1.05, 56.04 0 M9.79 0 C28.17 1.22, 44.66 0.99, 56.04 0 M56.04 0 C63.27 -1.88, 63.96 3.65, 65.83 9.79 M56.04 0 C64.73 -1.32, 66.74 3.59, 65.83 9.79 M65.83 9.79 C66.77 15.63, 67.38 26.57, 65.83 29.37 M65.83 9.79 C65.84 16.36, 64.98 23.24, 65.83 29.37 M65.83 29.37 C67.08 37.74, 63.81 39.68, 56.04 39.17 M65.83 29.37 C66.04 35.21, 63.5 38.62, 56.04 39.17 M56.04 39.17 C43.13 39.79, 33.55 38.55, 9.79 39.17 M56.04 39.17 C41.79 39.08, 26.51 38.53, 9.79 39.17 M9.79 39.17 C2.08 37.52, -1.2 35.05, 0 29.37 M9.79 39.17 C3.06 37.71, -0.66 37.67, 0 29.37 M0 29.37 C1.8 25.89, -1.87 19.06, 0 9.79 M0 29.37 C0 23.84, -0.09 19.72, 0 9.79 M0 9.79 C-1.5 1.63, 3.5 1.32, 9.79 0 M0 9.79 C0.23 3.99, 2.81 1.42, 9.79 0" stroke="#1e1e1e" stroke-width="2" fill="none"></path></g><g mask="url(#mask-P7yU8a96SQIld7At8TU-z)" stroke-linecap="round"><g transform="translate(377.8540874194355 4.539128174399963) rotate(0 147.08331298828125 31.70967212128717)"><path d="M0.61 0.99 C49.39 11.66, 244.2 52.75, 293.22 62.98 M-0.53 0.46 C48.58 11.39, 246.3 53.85, 295.43 64.28" stroke="#1e1e1e" stroke-width="2" fill="none"></path></g><g transform="translate(377.8540874194355 4.539128174399963) rotate(0 147.08331298828125 31.70967212128717)"><path d="M265.72 68.42 C277.52 65.28, 285.26 66.35, 295.43 64.28 M265.72 68.42 C271.91 68.43, 277.83 66.97, 295.43 64.28" stroke="#1e1e1e" stroke-width="2" fill="none"></path></g><g transform="translate(377.8540874194355 4.539128174399963) rotate(0 147.08331298828125 31.70967212128717)"><path d="M270.01 48.35 C280.17 52.07, 286.45 59.98, 295.43 64.28 M270.01 48.35 C275.49 52.6, 280.5 55.36, 295.43 64.28" stroke="#1e1e1e" stroke-width="2" fill="none"></path></g></g><mask id="mask-P7yU8a96SQIld7At8TU-z"><rect x="0" y="0" fill="#fff" width="772.020713395998" height="167.9584724169743"></rect><rect x="491.657432145998" y="23.74880029568712" fill="#000" width="66.5599365234375" height="25" opacity="1"></rect></mask><g transform="translate(491.657432145998 23.74880029568712) rotate(0 33.644420064305905 13.162962683672092)"><text x="33.27996826171875" y="0" font-family="Virgil, Segoe UI Emoji" font-size="20px" fill="#1e1e1e" text-anchor="middle" style="white-space: pre;" direction="ltr" dominant-baseline="text-before-edge">Design1</text></g><g stroke-linecap="round" transform="translate(679.270774431154 43.87554291311696) rotate(0 32.91668701171875 19.583328247070312)"><path d="M9.79 0 C18.21 1.63, 30.87 -0.24, 56.04 0 M9.79 0 C28.64 0.42, 46.08 -0.72, 56.04 0 M56.04 0 C63.29 -0.74, 67.44 2.63, 65.83 9.79 M56.04 0 C60.43 -1.91, 64.95 2.47, 65.83 9.79 M65.83 9.79 C66.63 13.66, 64.94 19.72, 65.83 29.37 M65.83 9.79 C65.83 15.71, 65.01 19.75, 65.83 29.37 M65.83 29.37 C65.37 34.36, 62.07 39.55, 56.04 39.17 M65.83 29.37 C67.29 34.12, 61.43 39.98, 56.04 39.17 M56.04 39.17 C37.5 37.19, 20.36 39.05, 9.79 39.17 M56.04 39.17 C42.79 39.38, 29.93 39.02, 9.79 39.17 M9.79 39.17 C4.83 41.15, 0.39 33.91, 0 29.37 M9.79 39.17 C5.27 37.94, 2.29 34.54, 0 29.37 M0 29.37 C-1.53 23.78, -0.48 20.88, 0 9.79 M0 29.37 C-0.78 25.49, 1.06 21.34, 0 9.79 M0 9.79 C-0.48 4.48, 4.94 -0.38, 9.79 0 M0 9.79 C-0.78 2.71, 3.1 -2.16, 9.79 0" stroke="#e03131" stroke-width="2" fill="none"></path></g><g stroke-linecap="round" transform="translate(669.1666870117188 290.08383301321464) rotate(0 34.58331298828125 32.916656494140625)"><path d="M43.75 8.25 C47.02 12.01, 55.14 19.75, 60.42 24.75 M43.75 8.25 C51.23 13.63, 55.88 20.02, 60.42 24.75 M60.42 24.75 C69.71 33.69, 69.85 33.53, 60.42 41.25 M60.42 24.75 C69.35 33.45, 68.61 30.79, 60.42 41.25 M60.42 41.25 C56.53 45.4, 47.78 53.17, 43.75 57.58 M60.42 41.25 C56.94 44.41, 53.02 48.21, 43.75 57.58 M43.75 57.58 C36.06 64.14, 36.04 67.08, 26.25 57.58 M43.75 57.58 C36.09 65.42, 35.68 64.51, 26.25 57.58 M26.25 57.58 C22.23 51.44, 15.29 48.45, 8.75 41.25 M26.25 57.58 C19.74 51.4, 11.79 44.28, 8.75 41.25 M8.75 41.25 C1.65 31.21, 0.69 31.11, 8.75 24.75 M8.75 41.25 C2.11 33.3, 1.51 31.21, 8.75 24.75 M8.75 24.75 C13.32 21.83, 18.12 17.29, 26.25 8.25 M8.75 24.75 C16.31 18.32, 22.12 12.13, 26.25 8.25 M26.25 8.25 C33.83 1.49, 34.52 1.18, 43.75 8.25 M26.25 8.25 C33.24 -1.28, 36.62 1.92, 43.75 8.25" stroke="#2f9e44" stroke-width="2" fill="none"></path></g><g stroke-linecap="round"><g transform="translate(35 121.75052002493337) rotate(0 313.7500305175781 100.41665649414062)"><path d="M0.19 -0.51 C104.74 32.63, 523.51 166.33, 627.95 199.85 M-1.18 -1.82 C103.21 31.96, 522.15 166.94, 627.23 200.88" stroke="#2f9e44" stroke-width="2" fill="none"></path></g><g transform="translate(35 121.75052002493337) rotate(0 313.7500305175781 100.41665649414062)"><path d="M597.25 201.99 C606.87 202.3, 616.55 200, 627.23 200.88 M597.25 201.99 C606.13 201.55, 614.22 201.25, 627.23 200.88" stroke="#2f9e44" stroke-width="2" fill="none"></path></g><g transform="translate(35 121.75052002493337) rotate(0 313.7500305175781 100.41665649414062)"><path d="M603.55 182.46 C611.13 189.6, 618.62 194.13, 627.23 200.88 M603.55 182.46 C610.54 187.54, 616.85 192.75, 627.23 200.88" stroke="#2f9e44" stroke-width="2" fill="none"></path></g></g><mask></mask><g mask="url(#mask-C8mgzgT-cusjX2Bz33L4y)" stroke-linecap="round"><g transform="translate(712.5 85.91720703665212) rotate(0 -0.83331298828125 98.75)"><path d="M0.91 -1.1 C0.73 31.62, -1.41 163.87, -1.65 197.11 M-0.07 0.94 C-0.36 33.75, -2.49 165.85, -2.59 198.45" stroke="#2f9e44" stroke-width="2" fill="none"></path></g><g transform="translate(712.5 85.91720703665212) rotate(0 -0.83331298828125 98.75)"><path d="M-12.55 170.15 C-11.68 177.23, -7.98 186.27, -2.59 198.45 M-12.55 170.15 C-8.84 180.26, -5.74 191.01, -2.59 198.45" stroke="#2f9e44" stroke-width="2" fill="none"></path></g><g transform="translate(712.5 85.91720703665212) rotate(0 -0.83331298828125 98.75)"><path d="M7.97 170.37 C3.67 177.55, 2.2 186.54, -2.59 198.45 M7.97 170.37 C3.98 180.43, -0.61 191.1, -2.59 198.45" stroke="#2f9e44" stroke-width="2" fill="none"></path></g></g><mask id="mask-C8mgzgT-cusjX2Bz33L4y"><rect x="0" y="0" fill="#fff" width="814.1666259765625" height="383.41720703665214"></rect><rect x="677.3567199707031" y="172.16720703665214" fill="#000" width="68.61993408203125" height="25" opacity="1"></rect></mask><g transform="translate(677.3567199707031 172.16720703665214) rotate(0 34.302745028412915 12.426229653903277)"><text x="34.309967041015625" y="0" font-family="Virgil, Segoe UI Emoji" font-size="20px" fill="#2f9e44" text-anchor="middle" style="white-space: pre;" direction="ltr" dominant-baseline="text-before-edge">Merging</text></g><g transform="translate(304.66668701171875 49.250520024933365) rotate(0 35.57996368408203 12.5)"><text x="0" y="0" font-family="Virgil, Segoe UI Emoji" font-size="20px" fill="#1971c2" text-anchor="start" style="white-space: pre;" direction="ltr" dominant-baseline="text-before-edge">design2</text></g><g transform="translate(328.3333740234375 125.91720703665212) rotate(0 37.37995910644531 12.5)"><text x="0" y="0" font-family="Virgil, Segoe UI Emoji" font-size="20px" fill="#f08c00" text-anchor="start" style="white-space: pre;" direction="ltr" dominant-baseline="text-before-edge">Design3</text></g><g transform="translate(493.33331298828125 241.75052002493337) rotate(0 35.179962158203125 12.5)"><text x="0" y="0" font-family="Virgil, Segoe UI Emoji" font-size="20px" fill="#1e1e1e" text-anchor="start" style="white-space: pre;" direction="ltr" dominant-baseline="text-before-edge">Master</text></g></svg>